<svg width="55" height="38" viewBox="0 0 55 38" fill="none" xmlns="http://www.w3.org/2000/svg">
<path fill-rule="evenodd" clip-rule="evenodd" d="M14.1145 1.34834L0.212891 15.25L14.1145 29.1516C15.579 30.616 17.9534 30.616 19.4178 29.1516C20.8823 27.6872 20.8823 25.3128 19.4178 23.8483L14.5695 19H41.1412C44.2477 19 46.7662 21.5184 46.7662 24.625C46.7662 27.7315 44.2477 30.25 41.1412 30.25H35.5162C33.4451 30.25 31.7662 31.9289 31.7662 34C31.7662 36.0711 33.4451 37.75 35.5162 37.75H41.1412C48.3899 37.75 54.2662 31.8737 54.2662 24.625C54.2662 17.3763 48.3899 11.5 41.1412 11.5H14.5695L19.4178 6.65166C20.8823 5.18717 20.8823 2.81283 19.4178 1.34834C17.9534 -0.116112 15.579 -0.116112 14.1145 1.34834Z" fill="white"/>
</svg>
