<svg width="60" height="60" viewBox="0 0 60 60" fill="none" xmlns="http://www.w3.org/2000/svg">
<path d="M18.3469 25.2117L30 13.5598L41.6566 25.2164L48.4371 18.4371L30 0L11.5676 18.4312L18.3469 25.2105V25.2117ZM0 30L6.78047 23.2184L13.5598 30L6.7793 36.777L0 30ZM18.3469 34.7871L30 46.4379L41.6566 34.7812L48.4406 41.557L30 60L11.5676 41.5664L11.5582 41.5559L18.3469 34.7859V34.7871ZM46.4379 30L53.2172 23.2207L60 30L53.2207 36.7793L46.4379 30Z" fill="#E7C160"/>
<path d="M36.8742 30L30 23.1152L24.9141 28.1988L24.3281 28.7848L23.1246 29.9883L23.1152 29.9977L23.1246 30.007L30 36.8812L36.8789 30.0023H36.873" fill="#E7C160"/>
</svg>
