<svg width="194" height="145" viewBox="0 0 194 145" fill="none" xmlns="http://www.w3.org/2000/svg">
<path d="M100.589 86.5804C81.356 91.8256 60.3301 108.33 60.3301 124.416V145H6.03068C2.701 145 0 142.296 0 138.962V124.859C0 98.0965 53.1817 84.5989 79.8192 84.5989C85.7334 84.5756 92.9516 85.2516 100.589 86.5804V86.5804ZM60.3301 72.5C40.3287 72.5 24.1227 56.2749 24.1227 36.25C24.1227 16.2251 40.3287 0 60.3301 0C80.3314 0 96.5374 16.2251 96.5374 36.25C96.5374 56.2749 80.3314 72.5 60.3301 72.5V72.5ZM140.173 84.5756C155.75 84.1793 168.812 71.3577 169.534 55.7854C170.303 38.7677 156.937 24.5241 140.01 24.1977H138.799C122.15 24.5241 108.901 38.3248 109.227 54.9928C109.553 71.6608 123.338 84.9952 140.173 84.5756ZM138.775 96.6744C120.66 96.6744 84.4761 107.468 84.4761 128.891V138.962C84.4761 142.296 87.1771 145 90.5068 145H187.044C190.374 145 193.075 142.296 193.075 138.962V128.891C193.075 107.445 156.891 96.6744 138.775 96.6744V96.6744Z" fill="#87CE76"/>
</svg>
