<svg width="65" height="58" viewBox="0 0 65 58" fill="none" xmlns="http://www.w3.org/2000/svg">
<path d="M52.4132 3.62447C52.4395 2.7498 52.4541 1.86859 52.4541 0.97998H13.6261C13.6261 1.86873 13.6409 2.7498 13.6672 3.62447H0.875C0.875 17.1294 9.2411 28.6795 21.073 33.377C23.6529 37.6626 26.7577 40.5934 30.1487 41.6666V51.8012H27.1747C24.4372 51.8012 22.2178 54.0205 22.2178 56.7581V57.9147H43.5319V56.7581C43.5319 54.0205 41.3127 51.8012 38.5751 51.8012H35.9314V41.6666C39.3691 40.5787 42.5118 37.5807 45.1125 33.1989C56.7134 28.3931 64.875 16.9627 64.875 3.62447H52.4132ZM5.11024 7.0755H13.8386C14.3923 14.9737 16.0042 22.1401 18.3604 27.9041C10.4117 23.6065 5.11024 15.8859 5.11024 7.0755ZM41.528 17.4046C40.2632 18.4446 39.01 19.4976 37.7479 20.541C37.7133 20.5714 37.6775 20.6027 37.6533 20.6425C38.0099 22.1942 38.4094 23.7374 38.7819 25.286C39.0649 26.0622 38.403 26.9781 37.5717 26.9173C37.2844 26.9138 37.0344 26.7563 36.8052 26.6001C35.5682 25.8186 34.3304 25.0375 33.0927 24.2568C32.9873 24.1924 32.888 24.1116 32.7693 24.0728C31.3661 24.918 29.9841 25.8011 28.5845 26.6533C28.1996 26.883 27.6885 26.8798 27.3108 26.6372C26.9125 26.4001 26.6672 25.9109 26.7614 25.4494C27.1646 23.7938 27.6182 22.1468 28.0031 20.4882C26.8665 19.5099 25.7119 18.551 24.5697 17.5788C24.311 17.3693 24.0305 17.1498 23.9183 16.8231C23.644 16.1672 24.0782 15.3119 24.797 15.2095C26.5081 15.0649 28.2308 15.004 29.9379 14.8472C30.5283 13.4364 31.096 12.0147 31.6794 10.6003C31.7881 10.3183 31.9135 10.0245 32.1613 9.83533C32.7098 9.36599 33.6718 9.52315 33.9833 10.1932C34.614 11.7553 35.2333 13.3225 35.8599 14.8866C35.8704 14.9397 35.9205 14.9573 35.9694 14.9573C37.5377 15.0647 39.1048 15.1926 40.6728 15.3042C41.123 15.3136 41.5693 15.5613 41.7725 15.9701C42.0242 16.429 41.9402 17.0659 41.528 17.4046ZM47.8127 27.6716C50.118 21.9476 51.6955 14.8686 52.2417 7.0755H60.6398C60.6398 15.7289 55.5261 23.3314 47.8127 27.6716Z" fill="white"/>
</svg>
