<svg width="64" height="64" viewBox="0 0 64 64" fill="none" xmlns="http://www.w3.org/2000/svg">
<path d="M10.2423 35H44.9991C46.6559 35 47.9991 33.6568 47.9991 32C47.9991 30.3432 46.6559 29 44.9991 29H10.2423L14.1211 25.1213C15.2927 23.9497 15.2927 22.0503 14.1211 20.8787C12.9497 19.7071 11.0501 19.7071 9.87854 20.8787L0.878994 29.8784C0.808795 29.9486 0.742395 30.0222 0.679596 30.099C0.652196 30.1324 0.628396 30.1678 0.602596 30.202C0.569596 30.246 0.535597 30.289 0.504997 30.3348C0.476997 30.3766 0.452797 30.42 0.427197 30.4628C0.402597 30.504 0.376798 30.5442 0.354198 30.5866C0.330598 30.6306 0.310798 30.6758 0.289598 30.7206C0.268798 30.7644 0.246998 30.8076 0.228399 30.8524C0.210399 30.8962 0.195599 30.9408 0.179799 30.9852C0.162399 31.0332 0.143999 31.0806 0.129199 31.1296C0.115799 31.174 0.105999 31.219 0.0947994 31.264C0.0821995 31.3138 0.0681996 31.3634 0.0581996 31.4142C0.0479997 31.466 0.0417997 31.5184 0.0343998 31.5706C0.0279998 31.6152 0.0193999 31.6592 0.0149999 31.7044C0.00539996 31.8012 0.000399997 31.8986 0.000199999 31.9958C0.000199999 31.9972 0 31.9988 0 32.0002C0 32.0016 0.000199999 32.0032 0.000199999 32.0046C0.000399997 32.102 0.00539996 32.1992 0.0149999 32.2962C0.0193999 32.3408 0.0277998 32.3842 0.0339998 32.4284C0.0415997 32.4812 0.0477997 32.534 0.0581996 32.5864C0.0681996 32.6368 0.0819995 32.6856 0.0945994 32.735C0.105999 32.7804 0.115999 32.8262 0.129599 32.8712C0.144199 32.9194 0.162399 32.966 0.179199 33.0132C0.195399 33.0584 0.210199 33.1038 0.228599 33.1482C0.246798 33.1922 0.268198 33.2344 0.288598 33.2774C0.310198 33.3232 0.330598 33.3694 0.354598 33.4144C0.376598 33.4554 0.401597 33.4944 0.425397 33.5342C0.451597 33.5784 0.476597 33.623 0.505397 33.666C0.534597 33.7098 0.567196 33.7508 0.598596 33.793C0.625796 33.8292 0.650996 33.8666 0.679996 33.9018C0.739795 33.9746 0.803195 34.0444 0.869394 34.1114C0.872594 34.1146 0.875194 34.1182 0.878394 34.1214L9.87834 43.1216C10.4643 43.7073 11.2319 44.0004 11.9997 44.0004C12.7673 44.0002 13.5353 43.7074 14.1209 43.1218C15.2925 41.9502 15.2925 40.0508 14.1211 38.8792L10.2423 35Z" fill="white"/>
<path d="M60.9998 5H23C21.3432 5 20 6.34319 20 7.99998V19.9999C20 21.6567 21.3432 22.9999 23 22.9999C24.6568 22.9999 26 21.6567 26 19.9999V11H57.9998V52.9999H26V43.9998C26 42.343 24.6568 40.9998 23 40.9998C21.3432 40.9998 20 42.343 20 43.9998V55.9999C20 57.6567 21.3432 58.9999 23 58.9999H60.9998C62.6565 58.9999 63.9997 57.6567 63.9997 55.9999V7.99998C63.9997 6.34319 62.6565 5 60.9998 5Z" fill="white"/>
</svg>
