<svg width="200" height="145" viewBox="0 0 200 145" fill="none" xmlns="http://www.w3.org/2000/svg">
<path d="M163.254 135.937C163.254 138.341 162.299 140.646 160.599 142.345C158.898 144.044 156.59 145 154.185 145H45.3489C42.9438 145 40.6359 144.044 38.9353 142.345C37.2348 140.646 36.2797 138.341 36.2797 135.937C36.2797 121.516 42.0131 107.686 52.218 97.4891C62.4229 87.2907 76.2642 81.5619 90.6978 81.5619H108.838H108.836C123.27 81.5619 137.111 87.2907 147.316 97.4891C157.521 107.686 163.254 121.516 163.254 135.937H163.254ZM99.7677 0C90.1458 0 80.9189 3.82017 74.115 10.6186C67.3112 17.4154 63.4895 26.6366 63.4895 36.2508C63.4895 45.865 67.3112 55.0846 74.115 61.883C80.9189 68.6814 90.1458 72.5 99.7677 72.5C109.39 72.5 118.617 68.6814 125.42 61.883C132.224 55.0846 136.046 45.865 136.046 36.2508C136.046 26.6366 132.224 17.4154 125.42 10.6186C118.617 3.8202 109.39 0 99.7677 0ZM172.326 18.1254C165.11 18.1254 158.189 20.9898 153.086 26.0889C147.984 31.1866 145.117 38.1019 145.117 45.3127C145.117 52.5236 147.984 59.4388 153.086 64.5365C158.189 69.6356 165.11 72.5 172.326 72.5C179.541 72.5 186.462 69.6356 191.566 64.5365C196.669 59.4388 199.535 52.5236 199.535 45.3127C199.535 38.1019 196.669 31.1866 191.566 26.0889C186.462 20.9898 179.541 18.1254 172.326 18.1254ZM27.209 18.1254C19.994 18.1254 13.0732 20.9898 7.96991 26.0889C2.86666 31.1866 0 38.1019 0 45.3127C0 52.5236 2.86666 59.4388 7.96991 64.5365C13.0732 69.6356 19.994 72.5 27.209 72.5C34.4256 72.5 41.3464 69.6356 46.4497 64.5365C51.5514 59.4388 54.418 52.5236 54.418 45.3127C54.418 38.1019 51.5514 31.1866 46.4497 26.0889C41.3464 20.9898 34.4256 18.1254 27.209 18.1254ZM172.322 81.5612H172.324C168.053 81.5809 163.85 82.6383 160.08 84.6425C166.832 91.3741 172.189 99.3679 175.846 108.169C179.504 116.971 181.389 126.407 181.393 135.936C181.369 139.028 180.816 142.092 179.761 144.999H190.462C192.869 144.999 195.175 144.043 196.876 142.344C198.576 140.645 199.533 138.34 199.533 135.936V108.748C199.533 101.539 196.666 94.6238 191.563 89.5246C186.46 84.4254 179.539 81.5611 172.324 81.5611L172.322 81.5612ZM18.1406 135.936C18.1452 126.407 20.0295 116.971 23.6874 108.169C27.3451 99.3681 32.7017 91.3742 39.4539 84.6427C35.6838 82.6385 31.4808 81.5811 27.2098 81.5613C19.9947 81.5613 13.0739 84.4257 7.97069 89.5249C2.86744 94.624 0.000776974 101.539 0.000776974 108.749V135.936C0.000776974 138.341 0.957329 140.645 2.65789 142.344C4.35846 144.044 6.665 144.999 9.07145 144.999H19.7728C18.7175 142.093 18.1648 139.028 18.1405 135.936L18.1406 135.936Z" fill="#ED7ACD"/>
</svg>
