<svg width="64" height="64" viewBox="0 0 64 64" fill="none" xmlns="http://www.w3.org/2000/svg">
<path fill-rule="evenodd" clip-rule="evenodd" d="M38.2708 8.25C40.3594 8.87685 42.3546 9.78073 44.2031 10.9375L47.3958 7.72917C48.1376 6.99129 49.1413 6.57708 50.1875 6.57708C51.2337 6.57708 52.2374 6.99129 52.9792 7.72917L56.25 11.0156C56.9879 11.7574 57.4021 12.761 57.4021 13.8073C57.4021 14.8535 56.9879 15.8572 56.25 16.599L52.8125 20.0365C53.8034 21.831 54.5629 23.7438 55.0729 25.7292H60.0313C60.5519 25.7278 61.0678 25.8292 61.5492 26.0275C62.0307 26.2258 62.4683 26.5171 62.837 26.8848C63.2056 27.2525 63.4981 27.6894 63.6977 28.1703C63.8973 28.6512 64 29.1668 64 29.6875V34.3229C63.9973 35.3691 63.5804 36.3717 62.8406 37.1115C62.1009 37.8513 61.0983 38.2681 60.0521 38.2708H55.0469C54.5257 40.2351 53.7611 42.1264 52.7708 43.901L56.25 47.3958C56.9879 48.1376 57.4021 49.1413 57.4021 50.1875C57.4021 51.2337 56.9879 52.2374 56.25 52.9792L52.9844 56.25C52.2418 56.9882 51.2372 57.4025 50.1901 57.4025C49.143 57.4025 48.1385 56.9882 47.3958 56.25L44.0938 52.9427C42.2724 54.0603 40.3132 54.9357 38.2656 55.5469V60.0208C38.2629 61.067 37.8461 62.0696 37.1063 62.8094C36.3665 63.5492 35.3639 63.966 34.3177 63.9687H29.6875C28.6413 63.966 27.6387 63.5492 26.8989 62.8094C26.1592 62.0696 25.7423 61.067 25.7396 60.0208V55.9792C23.4922 55.4709 21.3271 54.6504 19.3073 53.5417L16.599 56.25C15.8559 56.9854 14.8527 57.3978 13.8073 57.3978C12.7619 57.3978 11.7587 56.9854 11.0156 56.25L7.72917 52.9635C6.99255 52.2211 6.57921 51.2177 6.57921 50.1719C6.57921 49.126 6.99255 48.1226 7.72917 47.3802L10.1875 44.9219C8.89986 42.8596 7.92404 40.6184 7.29167 38.2708H3.94792C2.90171 38.2681 1.89914 37.8513 1.15936 37.1115C0.419573 36.3717 0.00274957 35.3691 0 34.3229L0 29.6875C-3.62884e-06 28.6395 0.415604 27.6342 1.15568 26.8922C1.89576 26.1502 2.89991 25.7319 3.94792 25.7292H7.25521C7.86986 23.3519 8.83719 21.0802 10.125 18.9896L7.72917 16.599C6.99381 15.8559 6.58133 14.8527 6.58133 13.8073C6.58133 12.7619 6.99381 11.7587 7.72917 11.0156L11.0156 7.72917C11.7574 6.99129 12.761 6.57708 13.8073 6.57708C14.8535 6.57708 15.8572 6.99129 16.599 7.72917L19.2031 10.3333C21.2453 9.1823 23.4435 8.3332 25.7292 7.8125V3.94792C25.7319 2.89991 26.1502 1.89576 26.8922 1.15568C27.6342 0.415604 28.6395 -3.62884e-06 29.6875 0L34.3229 0C35.3691 0.00274957 36.3717 0.419572 37.1115 1.15936C37.8513 1.89914 38.2681 2.90171 38.2708 3.94792V8.25ZM31.1771 19.1042C33.7114 19.1042 36.1888 19.8557 38.2959 21.2638C40.403 22.6719 42.0452 24.6733 43.0148 27.0147C43.9844 29.3562 44.2378 31.9327 43.743 34.4182C43.2482 36.9037 42.0274 39.1867 40.2351 40.9783C38.4427 42.77 36.1592 43.9898 33.6735 44.4836C31.1878 44.9774 28.6114 44.7229 26.2703 43.7524C23.9293 42.7818 21.9286 41.1388 20.5213 39.0311C19.1141 36.9234 18.3636 34.4458 18.3646 31.9115C18.3646 30.2291 18.696 28.5633 19.34 27.0091C19.9839 25.4549 20.9278 24.0428 22.1176 22.8535C23.3074 21.6642 24.7199 20.7209 26.2743 20.0776C27.8288 19.4342 29.4948 19.1035 31.1771 19.1042Z" fill="white"/>
</svg>
