<svg width="64" height="64" viewBox="0 0 64 64" fill="none" xmlns="http://www.w3.org/2000/svg">
<path d="M15.5162 26.9515C17.2933 26.7128 19.0705 27.3228 20.3304 28.5828L23.5134 31.7657L26.524 28.7684L22.1739 24.4316C21.4975 23.7553 21.4975 22.6545 22.1739 21.9781C22.8503 21.3017 23.9511 21.3017 24.6274 21.9781L28.9775 26.3282L31.9881 23.3309L28.7918 20.1346C27.5319 18.8747 26.9218 17.0843 27.1605 15.3204C27.691 11.2886 26.4046 7.07118 23.3145 3.96779C20.158 0.81134 15.8345 -0.461848 11.7364 0.148221C11.0865 0.241058 10.8213 1.05006 11.2855 1.51425L15.3836 5.61232C17.3331 7.56189 17.3331 10.7183 15.3836 12.6546L12.8637 15.1745C10.9141 17.1241 7.75769 17.1241 5.82138 15.1745L1.71005 11.0764C1.24586 10.6122 0.450121 10.8775 0.344022 11.5273C-0.266047 15.6254 1.00714 19.949 4.16359 23.1054C7.26698 26.1955 11.4844 27.482 15.5162 26.9515Z" fill="white"/>
<path d="M41.0064 32.3492L37.9958 35.3465L55.8735 53.2242C56.5499 53.9006 56.5499 55.0014 55.8735 55.6778C55.1971 56.3542 54.0964 56.3542 53.42 55.6778L35.5423 37.8001L32.5317 40.7974L50.9532 59.2188C53.2874 61.553 57.0671 61.5398 59.4013 59.2056C61.7355 56.8714 61.7355 53.0916 59.4146 50.7574L41.0064 32.3492Z" fill="white"/>
<path d="M47.9159 20.4132H55.8601L63.8043 4.53808L59.8388 0.572632L43.9505 8.50353V16.4477L22.3593 37.9725L18.4735 34.0999L2.82386 49.7495C-0.438683 53.0121 -0.438683 58.2905 2.82386 61.5531C6.08641 64.8156 11.3648 64.8156 14.6274 61.5531L30.277 45.9035L26.3115 41.938L47.9159 20.4132Z" fill="white"/>
</svg>
