<svg width="64" height="59" viewBox="0 0 64 59" fill="none" xmlns="http://www.w3.org/2000/svg">
<path d="M2.11493 4.28325C1.54885 4.27097 1.01018 4.03709 0.614698 3.63187C0.21922 3.22665 -0.00148994 2.68245 7.57085e-06 2.11623C0.00938745 1.55825 0.235221 1.02574 0.629832 0.631129C1.02444 0.236519 1.55695 0.0106851 2.11493 0.00130524H5.24044C7.05766 -0.0281133 8.84829 0.440261 10.4184 1.35569C13.2522 3.15286 13.7575 5.72099 14.4815 8.61729H61.8851C62.4456 8.61867 62.9827 8.84193 63.379 9.23826C63.7754 9.63459 63.9986 10.1717 64 10.7322C63.9913 10.953 63.9545 11.1718 63.8906 11.3834L58.3741 33.6578C58.2693 34.1288 58.0042 34.5488 57.6242 34.8462C57.2442 35.1436 56.7728 35.2998 56.2904 35.2883H21.6233C22.3839 38.1065 23.1444 39.6223 24.1706 40.3256C25.4208 41.1538 27.6087 41.1955 31.2186 41.1538H55.7695C56.3304 41.1538 56.8684 41.3767 57.265 41.7733C57.6616 42.1699 57.8844 42.7078 57.8844 43.2688C57.8844 43.8297 57.6616 44.3676 57.265 44.7642C56.8684 45.1609 56.3304 45.3837 55.7695 45.3837H31.2551C26.7596 45.4358 23.9935 45.3264 21.7744 43.8678C19.5553 42.4092 18.3051 39.7474 17.1122 35.0122L9.8662 7.53378C9.8662 7.48169 9.8662 7.48169 9.8089 7.42439C9.71377 6.93035 9.52102 6.46026 9.24195 6.04165C8.96287 5.62304 8.60308 5.26431 8.18363 4.98649C7.27755 4.4782 6.24696 4.23453 5.20919 4.28325H2.11493ZM43.9551 17.3062C44.0253 16.9671 44.2102 16.6626 44.4788 16.4439C44.7473 16.2253 45.083 16.1059 45.4293 16.1059C45.7756 16.1059 46.1113 16.2253 46.3798 16.4439C46.6483 16.6626 46.8333 16.9671 46.9035 17.3062V25.4898C46.8333 25.8289 46.6483 26.1335 46.3798 26.3521C46.1113 26.5707 45.7756 26.6901 45.4293 26.6901C45.083 26.6901 44.7473 26.5707 44.4788 26.3521C44.2102 26.1335 44.0253 25.8289 43.9551 25.4898V17.3166V17.3062ZM35.1255 17.3062C35.1932 16.9643 35.3774 16.6565 35.6467 16.4352C35.916 16.214 36.2538 16.0931 36.6023 16.0931C36.9509 16.0931 37.2886 16.214 37.5579 16.4352C37.8272 16.6565 38.0114 16.9643 38.0791 17.3062V25.4898C38.0114 25.8317 37.8272 26.1396 37.5579 26.3608C37.2886 26.582 36.9509 26.703 36.6023 26.703C36.2538 26.703 35.916 26.582 35.6467 26.3608C35.3774 26.1396 35.1932 25.8317 35.1255 25.4898V17.3166V17.3062ZM26.3012 17.3062C26.3714 16.9671 26.5563 16.6626 26.8248 16.4439C27.0934 16.2253 27.4291 16.1059 27.7754 16.1059C28.1216 16.1059 28.4573 16.2253 28.7259 16.4439C28.9944 16.6626 29.1794 16.9671 29.2496 17.3062V25.4898C29.1794 25.8289 28.9944 26.1335 28.7259 26.3521C28.4573 26.5707 28.1216 26.6901 27.7754 26.6901C27.4291 26.6901 27.0934 26.5707 26.8248 26.3521C26.5563 26.1335 26.3714 25.8289 26.3012 25.4898V17.3166V17.3062ZM48.0339 12.8367H15.664L20.4877 30.9959H54.6964L59.1971 12.8367H48.0339ZM49.4299 47.8476C50.4602 47.8476 51.4673 48.1531 52.324 48.7255C53.1806 49.2979 53.8483 50.1115 54.2426 51.0633C54.6368 52.0152 54.74 53.0626 54.539 54.0731C54.338 55.0836 53.8419 56.0117 53.1134 56.7403C52.3849 57.4688 51.4567 57.9649 50.4462 58.1659C49.4357 58.3669 48.3883 58.2637 47.4365 57.8695C46.4846 57.4752 45.671 56.8075 45.0986 55.9509C44.5263 55.0942 44.2207 54.0871 44.2207 53.0568C44.2207 51.6752 44.7696 50.3503 45.7465 49.3734C46.7234 48.3965 48.0484 47.8476 49.4299 47.8476V47.8476ZM26.6137 47.8476C27.644 47.8476 28.6511 48.1531 29.5078 48.7255C30.3644 49.2979 31.0321 50.1115 31.4264 51.0633C31.8206 52.0152 31.9238 53.0626 31.7228 54.0731C31.5218 55.0836 31.0257 56.0117 30.2972 56.7403C29.5686 57.4688 28.6405 57.9649 27.63 58.1659C26.6195 58.3669 25.5721 58.2637 24.6202 57.8695C23.6684 57.4752 22.8548 56.8075 22.2824 55.9509C21.71 55.0942 21.4045 54.0871 21.4045 53.0568C21.4045 51.6752 21.9534 50.3503 22.9303 49.3734C23.9072 48.3965 25.2322 47.8476 26.6137 47.8476V47.8476Z" fill="white"/>
</svg>
