<svg width="129" height="147" viewBox="0 0 129 147" fill="none" xmlns="http://www.w3.org/2000/svg">
<path d="M126.119 122.34C122.055 98.2234 101.427 80.324 77.0098 79.9425L51.6679 79.5466C26.6949 79.1564 5.32466 96.9547 0.87072 121.494C-1.35776 133.856 8.08819 145.105 20.4815 145.299L105.942 146.634C118.52 146.83 128.319 135.512 126.293 123.084L126.119 122.34Z" fill="#A199F9"/>
<path d="M38.6586 59.5457C52.8616 74.1995 76.1633 74.934 91.1813 61.1058L91.5574 60.7413C104.512 48.7317 106.116 28.9597 95.0454 15.0946C79.9811 -3.64328 51.4884 -3.71805 36.3952 14.9178C25.8286 28.0745 26.6405 47.1448 38.4758 59.3563L38.6586 59.5457Z" fill="#A199F9"/>
</svg>
