<svg width="64" height="48" viewBox="0 0 64 48" fill="none" xmlns="http://www.w3.org/2000/svg">
<path fill-rule="evenodd" clip-rule="evenodd" d="M45.4672 8.79238C46.6365 8.79238 47.7795 9.13911 48.7517 9.78872C49.7239 10.4383 50.4817 11.3617 50.9292 12.4419C51.3766 13.5222 51.4937 14.7109 51.2656 15.8577C51.0375 17.0045 50.4744 18.0579 49.6476 18.8847C48.8208 19.7115 47.7674 20.2745 46.6206 20.5027C45.4738 20.7308 44.2851 20.6137 43.2048 20.1662C42.1246 19.7188 41.2013 18.961 40.5516 17.9888C39.902 17.0166 39.5553 15.8736 39.5553 14.7043C39.5553 13.928 39.7082 13.1592 40.0053 12.4419C40.3024 11.7247 40.7379 11.0729 41.2869 10.5239C41.8358 9.97497 42.4876 9.5395 43.2048 9.2424C43.9221 8.9453 44.6909 8.79238 45.4672 8.79238ZM59.7028 47.5403H4.30243C3.16186 47.5354 2.06978 47.0784 1.26573 46.2694C0.865406 45.8713 0.547545 45.3982 0.330351 44.8771C0.113157 44.356 0.000896354 43.7972 0 43.2327L0 4.30243C0.000193951 3.16143 0.453612 2.06723 1.26052 1.26052C2.06723 0.453612 3.16143 0.000193951 4.30243 0L59.7028 0C60.8427 0.00295505 61.9349 0.458185 62.7395 1.26573C63.5464 2.07244 63.9998 3.16664 64 4.30764V43.2327C63.9998 43.7969 63.8883 44.3555 63.6721 44.8765C63.4558 45.3976 63.1389 45.8709 62.7395 46.2694C61.9354 47.0784 60.8433 47.5354 59.7028 47.5403ZM55.8743 42.6285L45.6287 26.2834C45.4167 25.9466 45.1227 25.669 44.7743 25.4767C44.4258 25.2843 44.0344 25.1834 43.6364 25.1834C43.2384 25.1834 42.8469 25.2843 42.4985 25.4767C42.15 25.669 41.8561 25.9466 41.644 26.2834L36.8051 34.0601L42.0711 42.6285H39.9095L25.549 19.7099C24.2259 17.9442 22.106 18.0796 20.9236 19.7099L6.85993 42.6285H4.90665V4.90665H59.0777V42.6285H55.8743Z" fill="white"/>
</svg>
